<?xml version="1.0" encoding="utf-8"?>
<!-- Generator: Adobe Illustrator 24.1.3, SVG Export Plug-In . SVG Version: 6.00 Build 0)  -->
<svg version="1.1" id="Layer_1" xmlns="http://www.w3.org/2000/svg" xmlns:xlink="http://www.w3.org/1999/xlink" x="0px" y="0px"
	 viewBox="0 0 60 60" style="enable-background:new 0 0 60 60;" xml:space="preserve">
<style type="text/css">
	.class1{fill:#00A536;stroke:#00A536;stroke-width:2;}
	.class2{fill:#FFFFFF;}
</style>
<circle class="class1" cx="30" cy="30" r="29"/>
<path class="class2" d="M21.3,28.8h14.8l-4.5-5.5c-0.2-0.3-0.3-0.6-0.3-0.9c0-0.3,0.2-0.6,0.4-0.8c0.3-0.2,0.6-0.3,0.9-0.3
	s0.6,0.2,0.8,0.4l6.3,7.5c0,0.1,0.1,0.1,0.1,0.2c0,0.1,0,0.1,0.1,0.2C40,29.7,40,29.8,40,30c0,0.2,0,0.3-0.1,0.5
	c0,0.1,0,0.1-0.1,0.2c0,0.1-0.1,0.1-0.1,0.2l-6.3,7.5c-0.1,0.1-0.3,0.3-0.4,0.3c-0.2,0.1-0.3,0.1-0.5,0.1c-0.3,0-0.6-0.1-0.8-0.3
	c-0.1-0.1-0.2-0.2-0.3-0.4c-0.1-0.1-0.1-0.3-0.1-0.5c0-0.2,0-0.3,0.1-0.5c0-0.2,0.1-0.3,0.2-0.4l4.5-5.4H21.3
	c-0.3,0-0.6-0.1-0.9-0.4C20.1,30.7,20,30.3,20,30s0.1-0.6,0.4-0.9C20.6,28.9,20.9,28.8,21.3,28.8z"/>
</svg>
