<svg width="612" height="325" viewBox="0 0 612 325" fill="none" xmlns="http://www.w3.org/2000/svg">
<path d="M148.253 166.689C159.46 158.907 201.156 144.889 220.604 138.853H242.447C255.411 142.066 284.535 149.791 297.326 154.976C310.117 160.161 333.436 190.866 342.799 205.126L332.611 224.633C306.684 250.215 327.574 272.8 341.402 281.154C320.661 281.154 311.73 273.376 309.858 269.487C311.932 281.241 313.603 310.106 314.179 323.07H161.641V299.51H103.462C98.1005 240.848 134.244 176.417 148.253 166.689Z" fill="url(#paint0_linear)"/>
<ellipse cx="233.172" cy="157.361" rx="25.9725" ry="18.5082" fill="#CF0606"/>
<path d="M213.89 155.45C217.262 136.065 216.074 118.128 215.547 111.939C216.284 106.145 246.944 116.997 261.692 122.792C253.37 127.006 251.114 148.075 251.026 158.083C251.289 161.376 249.235 168.355 238.911 169.935C221.634 171.937 215.032 161.112 213.89 155.45Z" fill="url(#paint1_linear)"/>
<mask id="mask0" mask-type="alpha" maskUnits="userSpaceOnUse" x="213" y="110" width="49" height="61">
<path d="M213.89 155.45C217.262 136.065 216.074 118.128 215.547 111.939C216.284 106.145 246.944 116.997 261.692 122.792C253.37 127.006 251.114 148.075 251.026 158.083C251.289 161.376 249.235 168.355 238.911 169.935C221.634 171.937 215.032 161.112 213.89 155.45Z" fill="#BABABA"/>
</mask>
<g mask="url(#mask0)">
<path opacity="0.1" d="M256.589 142.902C235.826 139.662 220.433 121.408 215.331 112.686C227.182 110.241 253.828 106.819 265.608 112.686C277.389 118.553 264.504 135.275 256.589 142.902Z" fill="black"/>
</g>
<path d="M250.264 126.341C284.366 124.858 285.34 78.2217 281.565 55.0888C219.951 2.86484 195.211 43.8999 190.544 70.9455C196.241 90.0284 216.161 127.824 250.264 126.341Z" fill="url(#paint2_linear)"/>
<path d="M206.245 8.47486C196.434 5.38228 175.98 3.83601 172.653 22.3916C172.653 34.3887 201.606 31.3494 206.245 8.47486Z" fill="#30235B"/>
<path d="M218.058 70.0981L231.953 82.0323L230.445 88.9924L217.485 77.6183L218.058 70.0981Z" fill="#111111"/>
<path d="M203.929 80.83C215.791 90.8794 216.56 106.571 215.461 113.161C211.617 112.131 200.881 105.459 188.69 87.0079C169.25 47.3045 192.671 17.6093 206.812 7.72464C244.703 -14.3099 295.362 19.8745 286.507 46.0277C277.652 72.1809 235.299 66.1403 219.58 56.1183C222.874 66.003 219.854 75.7504 217.932 79.3885C210.519 62.0903 189.102 68.2682 203.929 80.83Z" fill="#30235B"/>
<path d="M229.321 2.62191C254.553 -4.62555 269.92 8.43778 274.45 15.8754C269.361 13.1352 255.258 9.29898 239.555 15.8754C214.726 27.2834 209.301 51.6093 209.693 62.3463L193.252 61.1719V55.1324C194.762 40.6487 204.089 9.86936 229.321 2.62191Z" fill="white"/>
<ellipse cx="199.985" cy="77.0673" rx="19.2976" ry="23.6088" fill="white"/>
<ellipse cx="199.985" cy="77.0673" rx="19.2976" ry="23.6088" fill="white"/>
<ellipse cx="199.985" cy="77.0673" rx="9.21133" ry="11.2692" fill="#24C28A"/>
<path opacity="0.5" d="M284.303 73.4645C277.15 71.2537 269.447 75.9667 266.489 78.5996C261.111 83.7347 269.266 96.7921 278.695 90.7773C286.238 85.9655 285.577 77.2305 284.303 73.4645Z" fill="#E6FCFF"/>
<path fill-rule="evenodd" clip-rule="evenodd" d="M263.458 77.0496C273.804 67.4926 283.615 69.1265 287.228 71.138C289.318 76.6734 287.228 92.8487 275.69 94.2827C266.459 95.4299 263.296 88.2937 262.868 84.5821C261.114 83.165 259.948 84.3865 259.585 85.1745C259.888 95.4895 251.596 102.467 242.696 100.849C235.577 99.5549 232.478 92.4406 231.818 89.0453H230.346V83.0097C239.617 73.9321 252.425 76.1571 257.67 78.4043C259.049 77.3205 262.104 77.0496 263.458 77.0496ZM283.76 74.1121C276.607 71.9012 270.072 75.6893 267.114 78.3221C261.736 83.4572 268.8 96.0376 278.669 90.7771C284.579 87.6271 285.033 77.8781 283.76 74.1121ZM243.315 80.8433C247.22 79.5722 255.185 78.7217 255.795 85.4888C256.558 93.9476 248.861 100.188 242.136 96.8597C237.266 94.45 235.272 89.5102 235.272 86.3901C235.272 83.8941 240.634 81.6522 243.315 80.8433Z" fill="#111111"/>
<path opacity="0.5" d="M255.821 85.489C255.211 78.7219 247.246 79.5724 243.34 80.8435C240.66 81.6524 235.298 83.8943 235.298 86.3903C235.298 89.5104 237.292 94.4502 242.162 96.8599C248.887 100.188 256.583 93.9478 255.821 85.489Z" fill="#E6FCFF"/>
<path d="M103.413 299.585C109.412 326.321 145.039 326.375 162.102 323.061L293.628 304.058C295.323 305.531 299.384 309.413 302.061 313.165C304.738 316.916 307.192 314.279 308.084 312.491C311.939 316.668 314.777 314.68 315.714 313.165C319.034 317.344 321.827 315.885 322.809 314.633C327.413 318.06 328.576 315.082 328.581 313.165C322.299 299.862 311.029 286.529 306.18 281.525L273.385 284.528L166.83 273.664C146.614 259.481 95.9136 266.165 103.413 299.585Z" fill="url(#paint3_linear)"/>
<path d="M358.251 259.133C352.31 278.319 344.12 281.671 340.767 280.949C305.481 257.337 320.633 233.141 332.62 223.995L363.865 159.664C359.341 156.126 354.301 145.059 354.818 138.08C355.232 132.497 359.04 132.31 360.892 132.915C361.409 127.13 365.588 127.314 367.613 128.129C369.371 121.822 374.463 123.175 376.789 124.639C377.099 115.954 383.122 117.144 386.094 118.824L391.312 132.915C393.444 133.211 398.388 133.895 401.111 134.267C404.515 134.731 408.848 135.35 406.681 140.146C404.949 143.984 396.16 157.115 391.982 163.201C383.214 187.184 364.193 239.946 358.251 259.133Z" fill="url(#paint4_linear)"/>
<path d="M268.31 316.167H337.116C337.116 319.979 334.025 323.07 330.213 323.07H275.212C271.4 323.07 268.31 319.979 268.31 316.167Z" fill="#B4B4B4"/>
<path d="M359.053 231.218C359.534 230.064 360.662 229.313 361.912 229.313H478.112C480.322 229.313 481.821 231.561 480.971 233.601L444.466 321.164C443.985 322.318 442.858 323.07 441.608 323.07H325.407C323.197 323.07 321.698 320.821 322.549 318.781L359.053 231.218Z" fill="url(#paint5_linear)"/>
<path d="M166.87 273.632L169.956 249.343" stroke="#30235B" stroke-width="0.619401"/>
<path d="M309.764 269.631C309.301 266.78 308.514 259.889 309.069 255.134" stroke="#30235B" stroke-width="0.619401"/>
<path d="M308.925 260.451L306.271 255.072" stroke="#30235B" stroke-width="0.619401"/>
<path d="M307.986 312.269L299.368 301.392" stroke="#30235B" stroke-width="0.619401"/>
<path d="M315.614 312.807L302.164 295.352" stroke="#30235B" stroke-width="0.619401"/>
<path d="M322.685 314.407L305.967 290.319" stroke="#30235B" stroke-width="0.619401"/>
<path d="M360.888 133.019C361.349 135.415 362.851 141.078 365.177 144.566" stroke="#30235B" stroke-width="0.619401"/>
<path d="M376.818 124.69C377.522 127.162 379.356 132.737 381.056 135.262" stroke="#30235B" stroke-width="0.619401"/>
<path d="M367.52 128.282C368.349 130.973 370.409 136.889 372.012 139.026" stroke="#30235B" stroke-width="0.619401"/>
<path d="M391.246 132.906L393.81 140.408" stroke="#30235B" stroke-width="0.619401"/>
<ellipse cx="405.978" cy="278.423" rx="7.86131" ry="11.3813" transform="rotate(19.8998 405.978 278.423)" fill="white"/>
<rect x="609.137" y="203.004" width="126.405" height="10.3543" transform="rotate(117.371 609.137 203.004)" fill="#E0E0E0"/>
<rect x="519.833" y="307.447" width="58.4432" height="15.6235" rx="3.09701" fill="#30235B"/>
<rect x="602.449" y="204.019" width="67.8967" height="10.3543" transform="rotate(-139.766 602.449 204.019)" fill="#E0E0E0"/>
<rect x="551.719" y="155.653" width="20.0325" height="3.56661" transform="rotate(162.128 551.719 155.653)" fill="#E0E0E0"/>
<circle cx="604.767" cy="199.849" r="7.23339" fill="#30235B"/>
<path d="M547.196 150.427L557.329 152.308L550.633 160.144L547.196 150.427Z" fill="#30235B"/>
<path d="M515.634 147.05C517.968 141.187 524.613 138.326 530.476 140.66C536.339 142.994 539.2 149.639 536.866 155.503L530.412 171.715L509.18 163.262L515.634 147.05Z" fill="#30235B"/>
<path d="M522.366 163.591C498.803 154.339 483.125 175.065 477.59 186.042C493.951 209.368 523.921 211.764 537.503 210.59C542.276 198.779 545.93 172.843 522.366 163.591Z" fill="#30235B"/>
<path d="M45.9919 251.441C30.8299 260.722 26.0589 252.258 25.5686 246.867C25.5686 239.024 25.5686 232.489 15.2755 220.888C-9.55896 193.44 -1.7165 149.653 32.5943 146.875C66.9051 144.098 56.9386 165.828 44.8481 179.879C32.7816 193.902 40.4065 198.161 58.4651 208.248L58.5725 208.308C82.0999 222.522 62.4937 235.266 50.8934 237.554C39.2931 239.841 49.2595 246.867 45.9919 251.441Z" fill="url(#paint6_linear)"/>
<path d="M196.089 99.4832C190.716 98.355 180.059 91.3081 181.021 75.118" stroke="#30235B" stroke-width="0.949425"/>
<path d="M271.78 12.6571C268.855 8.31543 261.945 1.89834 248.015 1.24023" stroke="#30235B" stroke-width="0.949425"/>
<path d="M80.3817 290.499C81.6643 275.806 68.0855 272.269 59.7797 272.27C58.7811 272.27 57.9288 272.954 57.6393 273.909C57.166 275.471 58.3638 277.046 59.9912 277.169C67.3256 277.721 77.2155 280.841 75.3912 290.499C73.6208 299.871 65.4975 301.638 59.7464 301.24C58.1618 301.131 56.6766 302.311 56.6766 303.899C56.6766 305.082 57.5134 306.11 58.6903 306.233C66.4491 307.047 79.1255 304.888 80.3817 290.499Z" fill="url(#paint7_linear)"/>
<path d="M59.0796 267.094V319.973C59.0796 321.683 57.693 323.07 55.9826 323.07H14.2349C12.5245 323.07 11.1379 321.683 11.1379 319.973L11.138 267.094C11.138 265.384 12.5245 263.997 14.235 263.997H55.9826C57.693 263.997 59.0796 265.384 59.0796 267.094Z" fill="url(#paint8_linear)"/>
<path d="M332.578 223.938L342.169 204.272" stroke="#30235B" stroke-width="0.949425"/>
<path d="M252.429 282.283C249.241 293.043 251.101 305.199 252.429 309.932L261.294 308.675C259.446 294.574 260.524 285.857 261.294 283.262L252.429 282.283Z" fill="#30235B"/>
<rect x="248.917" y="277.674" width="16.7668" height="4.34698" rx="2.17349" transform="rotate(6.01694 248.917 277.674)" fill="url(#paint9_linear)"/>
<rect opacity="0.5" x="437.758" y="9.11349" width="111.022" height="80.4669" rx="3.7977" stroke="#F7F7F7" stroke-width="1.89885"/>
<rect x="455.318" y="44.1719" width="18.9885" height="26.5653" rx="2.58027" fill="#FF7979"/>
<rect x="483.774" y="27.9568" width="18.9885" height="42.7804" rx="2.58027" fill="#9EFFAE"/>
<rect x="512.23" y="34.8569" width="18.9885" height="35.8803" rx="2.58027" fill="#FFDEAD"/>
<rect opacity="0.5" x="443.521" y="21.5562" width="96.4972" height="58.4137" fill="white"/>
<defs>
<linearGradient id="paint0_linear" x1="235.261" y1="108.563" x2="222.861" y2="356.901" gradientUnits="userSpaceOnUse">
<stop stop-color="#FF9F81"/>
<stop offset="1" stop-color="#F53838"/>
</linearGradient>
<linearGradient id="paint1_linear" x1="235.127" y1="41.3437" x2="232.91" y2="151.644" gradientUnits="userSpaceOnUse">
<stop stop-color="#FFEFE0"/>
<stop offset="1" stop-color="#FFBE99"/>
</linearGradient>
<linearGradient id="paint2_linear" x1="236.808" y1="29.928" x2="236.808" y2="126.383" gradientUnits="userSpaceOnUse">
<stop stop-color="#FFEFE0"/>
<stop offset="1" stop-color="#FFBE99"/>
</linearGradient>
<linearGradient id="paint3_linear" x1="215.622" y1="230.635" x2="215.622" y2="314.501" gradientUnits="userSpaceOnUse">
<stop offset="0.0677966" stop-color="#FFEFE0"/>
<stop offset="1" stop-color="#FFBE99"/>
</linearGradient>
<linearGradient id="paint4_linear" x1="332.507" y1="107.546" x2="413.893" y2="202.794" gradientUnits="userSpaceOnUse">
<stop stop-color="#FFEFE0"/>
<stop offset="1" stop-color="#FFBE99"/>
</linearGradient>
<linearGradient id="paint5_linear" x1="435.21" y1="158.948" x2="389.565" y2="348.293" gradientUnits="userSpaceOnUse">
<stop offset="0.0171777" stop-color="white"/>
<stop offset="1" stop-color="#D7D7D7"/>
</linearGradient>
<linearGradient id="paint6_linear" x1="-22.6908" y1="263.388" x2="69.622" y2="146.633" gradientUnits="userSpaceOnUse">
<stop stop-color="#ECECEC"/>
<stop offset="1" stop-color="#F5F5F5" stop-opacity="0"/>
</linearGradient>
<linearGradient id="paint7_linear" x1="88.5126" y1="279.422" x2="56.6766" y2="280.121" gradientUnits="userSpaceOnUse">
<stop stop-color="white"/>
<stop offset="1" stop-color="#CCCCCC"/>
</linearGradient>
<linearGradient id="paint8_linear" x1="35.1088" y1="246.164" x2="35.1088" y2="341.388" gradientUnits="userSpaceOnUse">
<stop stop-color="white"/>
<stop offset="1" stop-color="#CCCCCC"/>
</linearGradient>
<linearGradient id="paint9_linear" x1="256.982" y1="276.824" x2="256.87" y2="282.092" gradientUnits="userSpaceOnUse">
<stop stop-color="#7F67CE"/>
<stop offset="1" stop-color="#30235B"/>
</linearGradient>
</defs>
</svg>
