<?xml version="1.0" encoding="utf-8"?>
<!-- Generator: Adobe Illustrator 24.1.3, SVG Export Plug-In . SVG Version: 6.00 Build 0)  -->
<svg class="shadow-svg" version="1.1" id="Layer_1" xmlns="http://www.w3.org/2000/svg" xmlns:xlink="http://www.w3.org/1999/xlink" x="0px" y="0px"
	 viewBox="0 0 35 35" style="enable-background:new 0 0 35 35;" xml:space="preserve">
<style type="text/css">
	.st0{fill:#00A536;}
	.st1{fill:#FFFFFF;}
   .shadow-svg {
  -webkit-filter: drop-shadow( 3px 3px 10px rgb(13, 16, 37, 0.2));
  filter: drop-shadow( 3px 10px 10px rgb(13, 16, 37, 0.2));
}
</style>
<g>
	<ellipse class="st0" cx="17.4" cy="17.5" rx="12.5" ry="14"/>
</g>
<path class="st1" d="M22.9,17.5c0,1.4-0.6,2.7-1.5,3.7c-0.9,1-2.3,1.5-3.7,1.5c-1.4,0-2.7-0.6-3.7-1.5c-1-0.9-1.5-2.3-1.5-3.7
	c0-0.3,0-0.6,0.1-0.9h-1.8v7.1c0,0.5,0.4,0.9,0.9,0.9h12.3c0.2,0,0.5-0.1,0.6-0.3c0.2-0.2,0.3-0.4,0.3-0.6v-7.1H23
	C22.8,16.9,22.9,17.2,22.9,17.5z M17.5,21c0.5,0,0.9-0.1,1.3-0.3c0.4-0.2,0.8-0.4,1.1-0.8c0.3-0.3,0.6-0.7,0.8-1.1
	c0.2-0.4,0.3-0.9,0.3-1.3c0-0.5-0.1-0.9-0.3-1.3c-0.2-0.4-0.4-0.8-0.8-1.1c-0.3-0.3-0.7-0.6-1.1-0.8C18.4,14.1,18,14,17.5,14
	c-0.9,0-1.8,0.4-2.5,1c-0.7,0.7-1,1.5-1,2.5c0,0.9,0.4,1.8,1,2.5C15.7,20.6,16.6,21,17.5,21z M21.8,13.8h2.1c0.1,0,0.3-0.1,0.4-0.2
	s0.2-0.2,0.2-0.4V11c0-0.1-0.1-0.3-0.2-0.4s-0.2-0.2-0.4-0.2h-2.1c-0.1,0-0.3,0.1-0.4,0.2c-0.1,0.1-0.2,0.2-0.2,0.4v2.1
	C21.2,13.6,21.4,13.8,21.8,13.8z M17.5,0.5c-4.6,0-8.8,1.8-12,5c-3.1,3.2-5,7.5-5,12s1.8,8.8,5,12s7.5,5,12,5c2.2,0,4.5-0.4,6.5-1.3
	c2-0.8,3.9-2.1,5.6-3.6c1.6-1.6,2.8-3.4,3.6-5.6c0.8-2,1.3-4.3,1.3-6.5S34.1,13,33.2,11c-0.8-2-2.1-3.9-3.6-5.6
	c-1.6-1.5-3.4-2.8-5.6-3.6S19.7,0.5,17.5,0.5z M26.4,24.4c0,1.1-0.9,1.9-1.9,1.9H10.6c-1.1,0-1.9-0.9-1.9-1.9V10.6
	c0-1.1,0.9-1.9,1.9-1.9h13.8c1.1,0,1.9,0.9,1.9,1.9v13.8H26.4z"/>
</svg>
