<svg width="16" height="17" viewBox="0 0 16 17" fill="none" xmlns="http://www.w3.org/2000/svg">
<path d="M14.1891 6.16512L10.2219 5.58856L8.44844 1.99325C8.4 1.89481 8.32031 1.81512 8.22187 1.76669C7.975 1.64481 7.675 1.74637 7.55156 1.99325L5.77812 5.58856L1.81094 6.16512C1.70156 6.18075 1.60156 6.23231 1.525 6.31044C1.43244 6.40557 1.38143 6.53356 1.38319 6.66628C1.38495 6.79901 1.43933 6.9256 1.53437 7.01825L4.40469 9.81669L3.72656 13.7682C3.71066 13.8602 3.72083 13.9547 3.75592 14.0411C3.79102 14.1276 3.84963 14.2025 3.92511 14.2573C4.00059 14.3121 4.08992 14.3447 4.18297 14.3513C4.27602 14.3579 4.36907 14.3384 4.45156 14.2948L8 12.4292L11.5484 14.2948C11.6453 14.3464 11.7578 14.3636 11.8656 14.3448C12.1375 14.2979 12.3203 14.0401 12.2734 13.7682L11.5953 9.81669L14.4656 7.01825C14.5437 6.94169 14.5953 6.84169 14.6109 6.73231C14.6531 6.45887 14.4625 6.20575 14.1891 6.16512Z" fill="#FEA250"/>
</svg>
