<?xml version="1.0" encoding="utf-8"?>
<!-- Generator: Adobe Illustrator 24.1.3, SVG Export Plug-In . SVG Version: 6.00 Build 0)  -->
<svg class="shadow-svg" version="1.1" id="Layer_1" xmlns="http://www.w3.org/2000/svg" xmlns:xlink="http://www.w3.org/1999/xlink" x="0px" y="0px"
	 viewBox="0 0 35 35" style="enable-background:new 0 0 35 35;" xml:space="preserve">
<style type="text/css">
	.st0{fill:#00A536;}
	.st1{fill:#FFFFFF;}
    .shadow-svg {
  -webkit-filter: drop-shadow( 3px 3px 10px rgb(13, 16, 37, 0.2));
  filter: drop-shadow( 3px 10px 10px rgb(13, 16, 37, 0.2));
}
</style>
<g>
	<ellipse class="st0" cx="17.5" cy="17.5" rx="11.6" ry="11.1"/>
</g>
<path class="st1" d="M17.5,0.5c-9.4,0-17,7.6-17,17s7.6,17,17,17s17-7.6,17-17S26.9,0.5,17.5,0.5z M24.4,14.4c0,0.1,0,0.3,0,0.4
	c0,4.5-3.3,9.5-9.5,9.5c-1.8,0-3.6-0.5-5.2-1.5c0.3,0,0.5,0,0.8,0c1.6,0,3-0.5,4.1-1.4c-0.7,0-1.4-0.2-1.9-0.7c-0.6-0.4-1-1-1.2-1.6
	c0.5,0.1,1,0.1,1.5-0.1c-0.7-0.2-1.4-0.6-1.9-1.1c-0.5-0.6-0.7-1.3-0.7-2.1l0,0c0.4,0.2,1,0.4,1.5,0.4c-0.7-0.5-1.2-1.2-1.4-2
	c-0.2-0.8-0.1-1.7,0.4-2.4c0.8,1,1.9,1.9,3,2.5c1.2,0.6,2.5,0.9,3.8,1c-0.2-0.7-0.1-1.5,0.2-2.1c0.3-0.7,0.8-1.2,1.5-1.6
	c0.6-0.3,1.4-0.5,2.1-0.3c0.7,0.1,1.4,0.5,1.9,1c0.7-0.1,1.5-0.4,2.1-0.8c-0.2,0.8-0.8,1.4-1.5,1.8c0.7-0.1,1.3-0.3,1.9-0.5
	C25.6,13.4,25.1,14,24.4,14.4z"/>
</svg>
